<svg width="777" height="777" viewBox="0 0 777 777" fill="none" xmlns="http://www.w3.org/2000/svg">
<path d="M566.795 554.031C570.206 562.555 573.618 571.079 577.204 579.893C580.423 587.685 583.467 595.187 586.72 603.205C584.857 603.357 583.435 603.574 582.014 603.574C556.054 603.586 530.095 603.526 504.136 603.626C501.151 603.637 499.772 602.662 498.717 599.855C494.914 589.738 490.801 579.738 486.562 569.079C485.262 566.611 484.205 564.759 483.148 562.906C483.075 562.283 483.002 561.66 482.553 560.637C482.07 559.835 481.962 559.432 481.918 558.734C481.669 558.212 481.356 557.987 481.021 557.768C480.999 557.775 481.053 557.76 481.053 557.76C479.507 553.442 478.038 549.095 476.39 544.816C475.008 541.231 473.417 537.726 471.577 533.715C471.157 532.839 471.08 532.434 471.002 532.03C470.008 529.555 469.015 527.08 467.624 524.057C462.479 511.916 457.732 500.324 452.984 488.731C452.576 487.231 452.168 485.731 451.41 483.698C450.4 481.349 449.83 479.493 449.065 477.722C445.708 469.943 442.295 462.188 438.902 454.425C438.52 452.908 438.137 451.392 437.422 449.391C436.238 446.534 435.388 444.161 434.505 441.699C440.948 438.605 447.401 435.507 453.853 432.408C460.018 429.707 466.196 427.035 472.34 424.287C474.371 423.378 476.313 422.271 478.869 420.964C480.242 420.124 481.041 419.574 481.841 419.025C482.415 418.873 482.989 418.722 484.016 418.273C484.964 417.405 485.458 416.833 485.952 416.262C486.548 416.118 487.145 415.975 488.205 415.491C494.066 412.161 499.465 409.171 505.144 406.026C506.102 407.965 506.95 409.521 507.658 411.138C512.164 421.423 516.639 431.72 521.079 442.301C521.325 443.062 521.616 443.537 521.908 444.011C522.203 444.955 522.499 445.899 523.008 447.289C523.222 447.735 523.564 448.041 523.564 448.041C524.369 450.221 525.173 452.4 526.231 455.146C526.855 456.486 527.225 457.26 527.596 458.035C527.901 459.023 528.205 460.011 528.775 461.495C529.267 462.338 529.495 462.686 529.722 463.033C529.782 463.502 529.841 463.972 530.099 465.033C530.741 466.306 531.184 466.987 531.627 467.668C531.756 468.292 531.884 468.916 532.188 470.085C533.018 471.904 533.674 473.179 534.33 474.454C534.33 474.454 534.786 474.337 534.559 474.779C536.113 479.514 537.893 483.806 539.674 488.098C541.564 492.893 543.453 497.687 545.565 503.127C547.478 507.525 549.169 511.278 550.859 515.03C553.464 521.643 556.068 528.255 558.942 535.479C561.74 542.071 564.267 548.051 566.795 554.031Z" fill="#FAFAFA"/>
<path d="M272.302 278.907C273.594 276.042 274.886 273.176 276.508 269.776C277.076 268.477 277.313 267.713 277.551 266.948C283.242 253.494 288.945 240.045 294.616 226.583C295.835 223.689 296.942 220.747 298.32 217.274C298.798 215.818 299.057 214.915 299.316 214.011C303.156 204.928 306.997 195.845 311.08 186.111C313.169 184.874 315.016 184.287 316.862 183.701C323.983 183.852 331.104 184.122 338.224 184.13C359.463 184.153 380.702 184.074 402.798 184.038C405.296 184.286 406.936 184.53 408.577 184.774C413.71 197.42 418.843 210.066 424.276 223.26C424.993 224.548 425.409 225.289 425.825 226.03C430.52 237.6 435.215 249.17 440.16 261.222C440.411 261.704 440.772 262.03 440.772 262.03C444.802 272.192 448.745 282.39 452.882 292.508C458.226 305.575 463.724 318.578 469.383 332.229C470.991 335.919 472.372 338.988 473.753 342.058C474.665 344.974 475.578 347.89 476.399 351.15C476.308 351.494 476.286 351.501 476.032 351.555C475.417 351.967 475.056 352.323 474.477 352.694C473.958 352.807 473.763 353.009 473.674 353.314C453.719 367.719 432.859 380.542 409.609 390.386C393.216 349.881 376.978 309.759 360.198 268.299C354.896 281.195 350.188 292.676 345.458 304.149C328.962 344.16 312.483 384.178 295.866 424.139C295.227 425.676 293.393 427.469 291.851 427.766C260.054 433.877 228.813 441.777 199.34 455.595C199.207 455.658 199.011 455.589 198.037 455.543C201.401 447.517 204.661 439.733 207.925 431.949C218.583 406.538 229.285 381.146 239.886 355.711C248.741 334.467 257.449 313.162 266.298 291.916C267.684 288.587 269.469 285.426 271.38 281.674C271.894 280.41 272.098 279.659 272.302 278.907Z" fill="#FAFAFA"/>
<path d="M665.418 211.074C665.296 211.477 665.174 211.88 664.97 212.931C664.751 216.069 664.612 218.558 664.473 221.048C664.207 222.427 663.941 223.807 663.582 225.872C663.541 227.389 663.593 228.22 663.644 229.052C663.346 231.42 663.047 233.788 662.626 236.95C662.067 243.48 661.632 249.216 661.07 255.216C661.003 255.666 661.062 255.851 660.963 256.414C660.817 257.869 660.828 258.947 660.675 260.25C660.559 261.009 660.608 261.541 660.473 262.475C660.155 264.931 660.021 266.986 659.72 269.198C659.592 269.937 659.631 270.517 659.537 271.392C659.452 272.108 659.5 272.53 659.363 273.251C659.193 274.716 659.207 275.882 659.065 277.427C658.908 278.886 658.909 279.967 658.712 281.334C658.486 282.765 658.457 283.908 658.428 285.052C658.255 286.11 658.082 287.169 657.843 288.991C657.622 292.159 657.465 294.563 657.136 297.341C656.896 298.807 656.828 299.898 656.43 301.084C655.65 301.255 655.201 301.332 654.752 301.409C654.477 300.948 654.202 300.487 653.612 299.58C652.355 298.012 651.413 296.891 650.313 295.454C647.867 292.383 645.578 289.628 643.289 286.874C642.417 285.336 641.545 283.798 640.312 281.77C639.349 280.641 638.746 280.002 637.937 279.117C635.976 276.773 634.221 274.675 632.106 272.146C626.64 278.452 621.532 284.345 616.141 290.457C614.111 293.098 612.364 295.518 610.398 297.993C609.907 298.233 609.773 298.49 609.776 298.819C607.989 300.778 606.203 302.736 603.842 304.855C603.151 305.352 603.033 305.688 602.915 306.024C594.836 314.153 586.756 322.282 578.33 330.822C576.941 332.193 575.898 333.152 574.504 334.138C572.613 335.777 571.202 337.537 569.514 338.972C560.959 346.244 552.333 353.432 543.417 360.809C539.094 364.197 535.172 367.54 531.057 370.628C525.044 375.14 518.893 379.468 512.801 383.875C508.243 386.619 503.685 389.363 498.691 392.491C497.765 393.198 497.277 393.52 496.789 393.843C491.002 397.151 485.216 400.459 478.84 404.072C477.575 404.852 476.901 405.326 475.956 405.814C474.966 406.325 474.247 406.821 473.527 407.317C472.078 407.945 470.629 408.574 468.673 409.481C467.687 410.08 467.209 410.4 466.394 410.708C465.556 411.091 465.056 411.487 464.556 411.883C459.247 414.406 453.951 416.959 448.618 419.433C447.171 420.104 445.613 420.538 443.541 421.434C439.223 423.417 435.47 425.047 431.389 426.687C430.313 427.092 429.565 427.487 428.471 427.899C426.674 428.551 425.225 429.187 423.491 429.796C422.695 429.996 422.183 430.223 421.288 430.477C417.223 432.037 413.541 433.569 409.536 434.986C408 435.368 406.786 435.866 405.176 436.392C403.817 436.823 402.854 437.227 401.547 437.572C399.512 438.251 397.819 438.988 396.127 439.725C395.228 439.865 394.33 440.005 392.892 440.283C391.716 440.727 391.078 441.032 390.44 441.338C390.44 441.338 390.205 441.365 390.082 441.441C389.958 441.516 389.911 441.482 389.911 441.482C385.622 442.676 381.333 443.869 376.492 445.475C364.244 448.564 352.526 451.15 340.864 453.969C337.067 454.888 333.416 456.414 329.385 457.706C328.666 457.859 328.26 457.968 327.424 458.019C323.322 458.37 319.615 458.584 315.986 459.231C310.179 460.266 304.398 461.485 298.655 462.833C295.613 463.547 292.673 464.696 289.374 465.686C288.659 465.836 288.257 465.949 287.432 465.996C274.296 468.357 261.473 470.328 248.885 473.293C198.643 485.125 153.539 506.496 117.589 545.1C116.828 545.798 116.392 546.472 115.808 547.44C114.326 549.14 112.994 550.548 111.332 551.957C110.347 551.975 109.69 551.99 109.014 551.639C108.997 550.543 108.999 549.814 109.002 549.084C112.237 544.703 115.428 540.288 118.723 535.952C121.272 532.597 123.952 529.342 126.283 525.713C125.992 525.383 126.09 525.399 126.09 525.399C127.544 524.435 129.33 523.747 130.4 522.463C142.5 507.949 157.122 496.426 172.927 486.288C203.889 466.425 238.228 455.244 273.697 446.828C312.713 437.571 352.139 429.743 389.694 415.164C421.611 402.774 452.202 387.837 480.219 366.78C484.147 363.748 487.565 361.083 490.982 358.418C498.113 352.601 505.244 346.785 512.268 340.574C512.161 340.18 512.243 340.212 512.243 340.212C514.775 338.233 517.307 336.255 520.278 333.89C521.444 332.715 522.171 331.926 522.897 331.137C536.686 316.188 550.653 301.396 564.166 286.201C568.753 281.043 572.197 274.867 576.2 268.801C576.237 268.446 576.246 268.41 576.546 268.252C577.14 267.503 577.435 266.913 577.936 266.22C578.41 265.915 578.531 265.646 578.504 265.31C581.634 260.126 584.765 254.943 588.205 249.209C589.34 246.974 590.167 245.289 591.096 243.396C589.543 242.851 588.503 242.392 587.417 242.122C583.949 241.262 580.464 240.472 576.986 239.655C569.392 237.521 561.798 235.387 553.037 232.926C557.413 230.576 560.925 228.689 565.021 226.514C568.597 224.584 571.59 222.944 574.582 221.303C583.613 216.85 592.684 212.475 601.665 207.924C615.089 201.122 628.449 194.195 642.318 187.063C643.238 186.466 643.675 186.128 644.405 185.772C645.167 185.432 645.638 185.109 646.469 184.733C647.411 184.272 647.994 183.864 648.577 183.457C654.159 180.707 659.741 177.957 665.919 175C667.231 175.228 667.946 175.664 668.661 176.1C668.504 176.789 668.347 177.478 668.09 178.833C667.995 180.678 667.999 181.857 668.003 183.035C667.881 183.78 667.759 184.525 667.55 185.862C667.511 186.987 667.557 187.519 667.603 188.051C667.298 190.088 666.994 192.125 666.616 194.817C666.598 195.998 666.654 196.524 666.71 197.05C666.362 200.071 666.013 203.091 665.541 206.787C665.417 208.665 665.418 209.87 665.418 211.074Z" fill="#FAFAFA"/>
<path d="M141.953 588.032C145.866 579.387 149.779 570.743 153.957 561.52C154.702 559.633 155.183 558.326 155.664 557.018C156.367 555.578 157.071 554.138 158.016 552.179C158.401 551.113 158.543 550.567 158.686 550.022C162.304 541.634 165.75 533.165 169.642 524.906C170.831 522.383 172.816 519.698 175.161 518.337C204.39 501.385 235.817 490.39 269.025 484.384C269.658 484.269 270.328 484.369 271.555 484.369C269.69 489.424 267.928 494.199 266.14 499.371C262.984 506.944 259.854 514.121 256.685 522.006C252.729 532.153 248.814 541.592 244.898 551.03C242.385 556.865 239.872 562.701 237.108 569.125C235.781 572.457 234.706 575.201 233.632 577.944C230.339 585.724 227.047 593.503 223.588 601.853C222.899 602.926 222.378 603.429 221.856 603.933C198.16 603.861 174.463 603.789 149.92 603.717C148.001 603.799 146.929 603.88 145.857 603.961C142.941 603.796 140.026 603.631 136.353 603.423C137.616 599.985 138.758 596.877 140.153 593.177C140.921 591.067 141.437 589.549 141.953 588.032Z" fill="#FAFAFA"/>
</svg>
